<?xml version="1.0" standalone="no"?>
<!DOCTYPE svg PUBLIC "-//W3C//DTD SVG 20010904//EN"
 "http://www.w3.org/TR/2001/REC-SVG-20010904/DTD/svg10.dtd">
<svg version="1.0" xmlns="http://www.w3.org/2000/svg"
 width="512.000000pt" height="512.000000pt" viewBox="0 0 512.000000 512.000000"
 preserveAspectRatio="xMidYMid meet">
<metadata>
Created by potrace 1.14, written by Peter Selinger 2001-2017
</metadata>
<g transform="translate(0.000000,512.000000) scale(0.100000,-0.100000)"
fill="#000000" stroke="none">
<path d="M4895 5109 c-22 -6 -114 -29 -205 -50 -361 -88 -969 -277 -1245 -389
-11 -4 -108 -43 -215 -85 -503 -200 -995 -440 -1435 -698 -259 -152 -580 -374
-800 -554 -84 -68 -104 -93 -75 -93 5 0 92 -36 192 -81 225 -99 227 -100 313
-139 146 -66 128 -66 269 -5 69 30 145 63 168 74 24 10 102 45 173 76 72 31
144 63 162 71 89 43 167 61 247 58 133 -4 234 -50 323 -147 72 -78 122 -208
117 -307 -2 -42 -15 -179 -19 -201 -2 -8 -6 -55 -10 -105 -4 -49 -9 -97 -10
-106 -2 -9 -6 -49 -10 -90 -3 -40 -8 -84 -10 -98 -2 -14 -7 -64 -10 -112 -6
-67 -4 -90 6 -101 8 -8 39 -42 69 -77 50 -58 126 -145 278 -318 31 -34 59 -59
63 -55 4 5 28 69 53 143 74 224 178 500 246 655 71 161 166 367 210 455 29 58
67 134 85 170 29 58 84 160 178 330 94 171 307 515 445 720 198 292 499 681
638 824 15 15 34 74 34 104 0 32 -38 98 -67 118 -31 20 -107 26 -158 13z"/>
<path d="M845 4932 c-53 -18 -95 -71 -101 -125 -1 -17 -3 -71 -3 -119 l-1 -88
-37 15 c-109 41 -181 56 -220 46 -111 -30 -150 -166 -70 -246 24 -24 60 -41
134 -65 66 -21 100 -37 96 -44 -4 -6 -30 -42 -58 -81 -83 -112 -93 -178 -37
-244 50 -59 153 -70 206 -23 24 22 96 117 117 155 l16 29 71 -94 c74 -98 100
-118 162 -119 89 -3 150 59 150 152 0 43 -7 57 -87 165 l-52 71 89 27 c147 45
195 89 193 176 -2 74 -56 135 -128 144 -26 3 -69 -5 -130 -25 -51 -16 -97 -29
-103 -29 -6 0 -10 38 -10 106 -1 116 -15 161 -64 197 -27 20 -100 31 -133 19z"/>
<path d="M612 2979 c-66 -43 -76 -89 -56 -278 7 -68 16 -161 19 -205 4 -45 9
-89 10 -98 2 -9 6 -57 10 -105 3 -48 7 -99 10 -113 2 -14 7 -56 10 -95 4 -38
8 -84 10 -102 3 -34 11 -23 -175 -233 -47 -53 -114 -129 -150 -170 -36 -40
-74 -84 -85 -96 -213 -234 -227 -257 -210 -333 8 -39 50 -90 83 -102 20 -8
373 -90 452 -105 14 -3 41 -9 60 -14 19 -5 46 -11 60 -14 14 -2 57 -12 95 -20
39 -9 104 -23 146 -32 65 -14 78 -20 96 -48 17 -26 139 -237 386 -666 61 -106
81 -128 129 -141 47 -12 86 -7 126 17 26 15 166 239 341 547 69 123 155 263
163 268 6 4 47 14 92 23 44 10 88 19 96 21 8 1 121 26 250 54 374 81 449 99
470 114 35 25 59 64 65 105 8 66 1 78 -124 221 -56 65 -126 145 -185 211 -17
19 -62 71 -101 115 -38 44 -72 82 -75 85 -3 3 -32 37 -65 75 -33 39 -63 71
-66 73 -3 1 2 75 12 165 9 89 20 194 23 232 4 39 9 86 11 105 2 19 7 69 10
110 4 41 8 86 10 100 7 47 18 195 16 219 -4 68 -94 138 -164 127 -27 -4 -150
-55 -352 -146 -22 -10 -94 -41 -160 -70 -66 -28 -170 -74 -231 -101 -104 -46
-113 -48 -140 -35 -16 8 -164 73 -329 146 -165 73 -339 150 -388 171 -101 45
-155 50 -205 18z"/>
<path d="M4372 1824 c-59 -35 -72 -72 -72 -203 0 -61 -1 -111 -3 -111 -2 0
-43 14 -92 30 -106 36 -148 39 -198 15 -70 -33 -101 -130 -63 -203 22 -43 46
-57 155 -93 53 -18 98 -33 100 -35 3 -3 -5 -17 -16 -32 -92 -124 -113 -164
-113 -209 0 -89 78 -160 165 -148 55 7 80 27 148 120 43 60 64 82 72 75 7 -6
36 -44 66 -85 64 -90 114 -121 180 -110 80 14 139 95 124 172 -6 33 -69 135
-117 189 -11 12 -15 24 -11 27 5 3 52 20 104 36 122 39 169 85 169 166 0 47
-22 88 -65 120 -46 35 -96 34 -210 -4 -49 -17 -91 -29 -93 -27 -1 2 -4 56 -5
119 -2 99 -5 119 -23 143 -53 72 -131 90 -202 48z"/>
</g>
</svg>
